<svg xmlns="http://www.w3.org/2000/svg" xmlns:xlink="http://www.w3.org/1999/xlink" id="Layer_1" x="0" y="0" version="1.1" viewBox="0 0 1230.8 933.2" xml:space="preserve" style="enable-background:new 0 0 1230.8 933.2"><style type="text/css">.st0{fill:url(#SVGID_1_)}.st1{fill:url(#SVGID_2_)}.st2{fill:url(#SVGID_3_)}.st3{fill:url(#SVGID_4_)}.st4{fill:url(#SVGID_5_)}.st5{fill:url(#SVGID_6_)}.st6{fill:url(#SVGID_7_)}.st7{fill:#47cf73}.st8{fill:url(#SVGID_8_)}.st9{fill:url(#SVGID_9_)}.st10{fill:url(#SVGID_10_)}.st11{fill:url(#SVGID_11_)}.st12{fill:url(#SVGID_12_)}.st13{fill:url(#SVGID_13_)}.st14{fill:url(#SVGID_14_)}.st15{fill:url(#SVGID_15_)}.st16{fill:url(#SVGID_16_)}.st17{fill:url(#SVGID_17_)}.st18{fill:url(#SVGID_18_)}.st19{fill:url(#SVGID_19_)}.st20{fill:url(#SVGID_20_)}.st21{fill:url(#SVGID_21_)}.st22{fill:url(#SVGID_22_)}.st23{fill:url(#SVGID_23_)}.st24{fill:url(#SVGID_24_)}.st25{fill:url(#SVGID_25_)}.st26{fill:url(#SVGID_26_)}.st27{fill:url(#SVGID_27_)}.st28{fill:url(#SVGID_28_)}.st29{fill:url(#SVGID_29_)}.st30{fill:url(#SVGID_30_)}.st31{fill:url(#SVGID_31_)}.st32{fill:url(#SVGID_32_)}.st33{fill:url(#SVGID_33_)}.st34{fill:url(#SVGID_34_)}.st35{fill:url(#SVGID_35_)}.st36{fill:url(#SVGID_36_)}.st37{fill:url(#SVGID_37_)}.st38{fill:url(#SVGID_38_)}.st39{fill:url(#SVGID_39_)}.st40{fill:url(#SVGID_40_)}.st41{fill:#ffdd40}</style><title>Asset 5</title><g><g id="Layer_1-2"><g id="bg-1"><linearGradient id="SVGID_1_" x1="127.2" x2="147.2" y1="508.34" y2="508.34" gradientTransform="matrix(1 0 0 -1 0 789.24)" gradientUnits="userSpaceOnUse"><stop offset="0" style="stop-color:#3fcd85"/><stop offset="1" style="stop-color:#3fcd86"/></linearGradient><path d="M137.2,171.6c-5.5,0-10,4.5-10,10v198.6c0,5.5,4.5,10,10,10s10-4.5,10-10V181.6 C147.2,176.1,142.7,171.6,137.2,171.6z" class="st0"/><linearGradient id="SVGID_2_" x1="127.2" x2="147.2" y1="358.14" y2="358.14" gradientTransform="matrix(1 0 0 -1 0 789.24)" gradientUnits="userSpaceOnUse"><stop offset="0" style="stop-color:#3fcd85"/><stop offset="1" style="stop-color:#3fcd85"/></linearGradient><path d="M137.2,400.8c-5.5,0-10,4.5-10,10v40.6c0,5.5,4.5,10,10,10s10-4.5,10-10v-40.6 C147.2,405.3,142.7,400.8,137.2,400.8z" class="st1"/><linearGradient id="SVGID_3_" x1="202.053" x2="127.2" y1="219.613" y2="219.613" gradientTransform="matrix(1 0 0 -1 0 789.24)" gradientUnits="userSpaceOnUse"><stop offset="0" style="stop-color:#3bcc8c"/><stop offset="1" style="stop-color:#3fcd85"/></linearGradient><path d="M137.2,470.4c-5.5,0-10,4.5-10,10c-0.1,65.7,19.6,129.8,56.6,184.1c3.1,4.6,9.3,5.7,13.9,2.6 c4.6-3.1,5.7-9.3,2.6-13.9c-34.7-50.9-53.2-111.2-53.1-172.8C147.2,474.9,142.7,470.4,137.2,470.4z" class="st2"/><linearGradient id="SVGID_4_" x1="438.927" x2="202.2" y1="48.176" y2="48.176" gradientTransform="matrix(1 0 0 -1 0 789.24)" gradientUnits="userSpaceOnUse"><stop offset="0" style="stop-color:#2ec8ae"/><stop offset="1" style="stop-color:#3bcc8d"/></linearGradient><path d="M212.2,675.3c-5.5,0-10,4.5-10,10c0,2.4,0.8,4.7,2.4,6.5c54,64.1,130.6,105,213.9,114.1 c3.2,0.3,6.4,0.7,9.6,0.9c5.5,0.4,10.3-3.7,10.8-9.2c0.4-5.5-3.7-10.3-9.2-10.8c-3-0.2-6-0.5-9-0.9 c-78.2-8.5-150.2-46.9-200.9-107.1C217.9,676.6,215.1,675.3,212.2,675.3z" class="st3"/><linearGradient id="SVGID_5_" x1="620.4" x2="444.7" y1="-8.66" y2="-8.66" gradientTransform="matrix(1 0 0 -1 0 789.24)" gradientUnits="userSpaceOnUse"><stop offset="0" style="stop-color:#26c5c5"/><stop offset="1" style="stop-color:#2ec8b0"/></linearGradient><path d="M610.4,787.9H454.7c-5.5,0-10,4.5-10,10s4.5,10,10,10h155.7c5.5,0,10-4.5,10-10S615.9,787.9,610.4,787.9z" class="st4"/><linearGradient id="SVGID_6_" x1="821.7" x2="628.5" y1="-8.66" y2="-8.66" gradientTransform="matrix(1 0 0 -1 0 789.24)" gradientUnits="userSpaceOnUse"><stop offset="0" style="stop-color:#1ec1dc"/><stop offset="1" style="stop-color:#26c5c7"/></linearGradient><path d="M811.8,787.9H638.5c-5.5,0-10,4.5-10,10s4.5,10,10,10h173.2c5.5,0,10-4.5,10-10S817.3,787.9,811.8,787.9z" class="st5"/><linearGradient id="SVGID_7_" x1="905.9" x2="831.7" y1="-8.66" y2="-8.66" gradientTransform="matrix(1 0 0 -1 0 789.24)" gradientUnits="userSpaceOnUse"><stop offset="0" style="stop-color:#0ebeff"/><stop offset="1" style="stop-color:#1ec1dc"/></linearGradient><path d="M895.9,787.9h-54.2c-5.5,0-10,4.5-10,10s4.5,10,10,10h54.2c5.5,0,10-4.5,10-10S901.4,787.9,895.9,787.9z" class="st6"/><path d="M97.5,143c-9.6,0-17.5,7.8-17.5,17.5v53c0,9.7,7.8,17.5,17.5,17.5s17.5-7.8,17.5-17.5v-53 C115,150.8,107.1,143,97.5,143z" class="st7"/><linearGradient id="SVGID_8_" x1="79.999" x2="134.929" y1="356.53" y2="356.53" gradientTransform="matrix(1 0 0 -1 0 789.24)" gradientUnits="userSpaceOnUse"><stop offset="0" style="stop-color:#40ce7e"/><stop offset="1" style="stop-color:#3fcd81"/></linearGradient><path d="M97.5,244.2c-9.7,0-17.5,7.8-17.5,17.5v224.7c-0.1,41.8,7,83.3,20.9,122.8c3,9.2,12.9,14.2,22.1,11.1 c9.2-3,14.2-12.9,11.1-22.1c-0.1-0.2-0.2-0.5-0.2-0.7c-12.6-35.7-19-73.3-18.9-111.1V261.7C115,252.1,107.2,244.2,97.5,244.2 L97.5,244.2z" class="st8"/><linearGradient id="SVGID_9_" x1="310.85" x2="119.67" y1="63.877" y2="63.877" gradientTransform="matrix(1 0 0 -1 0 789.24)" gradientUnits="userSpaceOnUse"><stop offset="0" style="stop-color:#37ca9b"/><stop offset="1" style="stop-color:#3fcd85"/></linearGradient><path d="M137.2,631.3c-9.7,0-17.5,7.9-17.5,17.5c0,2.8,0.7,5.6,2,8.1c36.3,69.5,93.7,125.6,163.9,160.4 c8.5,4.6,19.1,1.5,23.7-7s1.5-19.1-7-23.7c-0.4-0.2-0.8-0.4-1.2-0.6c-63.5-31.6-115.5-82.4-148.4-145.3 C149.7,634.9,143.7,631.3,137.2,631.3z" class="st9"/><linearGradient id="SVGID_10_" x1="466.5" x2="319.4" y1="-39.552" y2="-39.552" gradientTransform="matrix(1 0 0 -1 0 789.24)" gradientUnits="userSpaceOnUse"><stop offset="0" style="stop-color:#2cc7b0"/><stop offset="1" style="stop-color:#35c9a0"/></linearGradient><path d="M336.9,802.2c-9.7,0-17.5,7.8-17.5,17.5c0,7.5,4.8,14.2,11.9,16.6C369.2,849,409,855.4,449,855.4 c9.7,0,17.5-7.8,17.5-17.5s-7.8-17.5-17.5-17.5c-36.2,0-72.2-5.8-106.5-17.3C340.7,802.5,338.8,802.1,336.9,802.2z" class="st10"/><linearGradient id="SVGID_11_" x1="957.7" x2="485.5" y1="-48.66" y2="-48.66" gradientTransform="matrix(1 0 0 -1 0 789.24)" gradientUnits="userSpaceOnUse"><stop offset="0" style="stop-color:#0ebeff"/><stop offset="1" style="stop-color:#2dc7b6"/></linearGradient><path d="M940.2,820.4H503c-9.7,0-17.5,7.8-17.5,17.5s7.8,17.5,17.5,17.5h437.2c9.7,0,17.5-7.8,17.5-17.5 S949.9,820.4,940.2,820.4z" class="st11"/><linearGradient id="SVGID_12_" x1="1068.8" x2="973.8" y1="-48.66" y2="-48.66" gradientTransform="matrix(1 0 0 -1 0 789.24)" gradientUnits="userSpaceOnUse"><stop offset="0" style="stop-color:#0ebeff"/><stop offset=".97" style="stop-color:#12c0ed"/><stop offset="1" style="stop-color:#47cf73"/></linearGradient><path d="M1051.3,820.4h-60c-9.7,0-17.5,7.8-17.5,17.5s7.8,17.5,17.5,17.5h60c9.7,0,17.5-7.8,17.5-17.5 S1060.9,820.4,1051.3,820.4z" class="st12"/><path d="M54.8,0c-6.9,0-12.5,5.6-12.5,12.5V56c0,6.9,5.6,12.5,12.5,12.5S67.3,62.9,67.3,56V12.5 C67.3,5.6,61.7,0,54.8,0z" class="st7"/><path d="M54.8,78.2c-6.9,0-12.5,5.6-12.5,12.5l0,0V121c0,6.9,5.6,12.5,12.5,12.5s12.5-5.6,12.5-12.5V90.7 C67.3,83.8,61.7,78.2,54.8,78.2z" class="st7"/><path d="M54.8,143.1c-6.9,0-12.5,5.6-12.5,12.5v106.1c0,6.9,5.6,12.5,12.5,12.5s12.5-5.6,12.5-12.5V155.6 C67.3,148.7,61.7,143.1,54.8,143.1z" class="st7"/><path d="M54.8,285.8c-6.9,0-12.5,5.6-12.5,12.5v190.3c-0.1,76.3,21.5,151,62.3,215.5c3.8,5.7,11.6,7.3,17.3,3.4 c5.5-3.7,7.2-11.1,3.8-16.8c-38.2-60.5-58.5-130.6-58.4-202.1V298.3C67.3,291.3,61.7,285.8,54.8,285.8L54.8,285.8z" class="st7"/><linearGradient id="SVGID_13_" x1="689.9" x2="131" y1="-18.86" y2="-18.86" gradientTransform="matrix(1 0 0 -1 0 789.24)" gradientUnits="userSpaceOnUse"><stop offset="0" style="stop-color:#0ebeff"/><stop offset=".03" style="stop-color:#21c4ce"/><stop offset="1" style="stop-color:#47cf73"/></linearGradient><path d="M143.5,724.1c-6.9,0-12.5,5.6-12.5,12.5c0,2.9,1,5.7,2.8,7.9c76.6,93.6,191.2,147.8,312.1,147.6h231.5 c6.9,0,12.5-5.6,12.5-12.5s-5.6-12.5-12.5-12.5H445.9c-113.4,0.2-221-50.7-292.8-138.5C150.8,725.8,147.2,724.1,143.5,724.1z" class="st13"/><linearGradient id="SVGID_14_" x1="1128.5" x2="712.7" y1="-90.46" y2="-90.46" gradientTransform="matrix(1 0 0 -1 0 789.24)" gradientUnits="userSpaceOnUse"><stop offset="0" style="stop-color:#0fbff8"/><stop offset="1" style="stop-color:#1fc3d2"/></linearGradient><path d="M1116,867.2H725.2c-6.9,0-12.5,5.6-12.5,12.5s5.6,12.5,12.5,12.5H1116c6.9,0,12.5-5.6,12.5-12.5 S1122.9,867.2,1116,867.2z" class="st14"/><linearGradient id="SVGID_15_" x1="1230.8" x2="1142.3" y1="-90.46" y2="-90.46" gradientTransform="matrix(1 0 0 -1 0 789.24)" gradientUnits="userSpaceOnUse"><stop offset="0" style="stop-color:#0ebeff"/><stop offset="1" style="stop-color:#0fbffa"/></linearGradient><path d="M1218.3,867.2h-63.5c-6.9,0-12.5,5.6-12.5,12.5s5.6,12.5,12.5,12.5h63.5c6.9,0,12.5-5.6,12.5-12.5 S1225.2,867.2,1218.3,867.2z" class="st15"/><path d="M15,36C6.7,36,0,42.7,0,51v58.8c0,8.3,6.7,15,15,15s15-6.7,15-15V51C30,42.7,23.3,36,15,36z" class="st7"/><path d="M15,136.1c-8.3,0-15,6.7-15,15l0,0v229c0,8.3,6.7,15,15,15s15-6.7,15-15v-229C30,142.8,23.3,136.1,15,136.1 L15,136.1z" class="st7"/><path d="M15,408.5c-8.3,0-15,6.7-15,15v75.2c0,39.5,5.3,78.9,15.9,117c2.2,8,10.5,12.6,18.5,10.4 c8-2.2,12.6-10.5,10.4-18.5l0,0C35,572.2,30,535.5,30,498.7v-75.2C30,415.2,23.3,408.5,15,408.5z" class="st7"/><linearGradient id="SVGID_16_" x1="198.506" x2="31.6" y1="42.387" y2="42.387" gradientTransform="matrix(1 0 0 -1 0 789.24)" gradientUnits="userSpaceOnUse"><stop offset="0" style="stop-color:#3bcc8c"/><stop offset="1" style="stop-color:#45ce76"/></linearGradient><path d="M46.6,643.8c-8.3,0-15,6.7-15,15c0,2,0.4,3.9,1.1,5.7c30,72.5,79,135.5,141.8,182.4c6.6,5,16,3.6,21-3 s3.6-16-3-21C134,779.2,88.4,720.5,60.5,653.1C58.3,647.5,52.7,643.8,46.6,643.8z" class="st16"/><linearGradient id="SVGID_17_" x1="754.9" x2="214.1" y1="-102.21" y2="-102.21" gradientTransform="matrix(1 0 0 -1 0 789.24)" gradientUnits="userSpaceOnUse"><stop offset="0" style="stop-color:#1fc3d6"/><stop offset="1" style="stop-color:#3acb91"/></linearGradient><path d="M229.1,849.6c-8.3,0-15,6.7-15,15c0,5.4,2.9,10.4,7.6,13.1c65,36.5,138.3,55.6,212.8,55.6h305.4 c8.3,0,15-6.7,15-15s-6.7-15-15-15H434.5c-69.4,0-137.6-17.8-198.1-51.7C234.2,850.2,231.7,849.6,229.1,849.6z" class="st17"/><linearGradient id="SVGID_18_" x1="871.3" x2="767" y1="-128.96" y2="-128.96" gradientTransform="matrix(1 0 0 -1 0 789.24)" gradientUnits="userSpaceOnUse"><stop offset="0" style="stop-color:#0ebeff"/><stop offset="1" style="stop-color:#1fc3d8"/></linearGradient><path d="M856.3,903.2H782c-8.3,0-15,6.7-15,15s6.7,15,15,15h74.3c8.3,0,15-6.7,15-15S864.5,903.2,856.3,903.2 L856.3,903.2z" class="st18"/><linearGradient id="SVGID_19_" x1="1094.4" x2="880.9" y1="-128.96" y2="-128.96" gradientTransform="matrix(1 0 0 -1 0 789.24)" gradientUnits="userSpaceOnUse"><stop offset="0" style="stop-color:#0fbff6"/><stop offset="1" style="stop-color:#19c1e5"/></linearGradient><path d="M1079.4,903.2H895.9c-8.3,0-15,6.7-15,15s6.7,15,15,15l0,0h183.5c8.3,0,15-6.7,15-15 C1094.4,910,1087.7,903.2,1079.4,903.2z" class="st19"/></g></g></g><g><g id="Layer_1-2_1_"><linearGradient id="SVGID_20_" x1="1368.015" x2="511.845" y1="336.45" y2="336.45" gradientTransform="matrix(1 0 0 1 0 -144)" gradientUnits="userSpaceOnUse"><stop offset="0" style="stop-color:#ffdd40"/><stop offset=".12" style="stop-color:#fcd846"/><stop offset=".29" style="stop-color:#f3cb58"/><stop offset=".48" style="stop-color:#e5b576"/><stop offset=".7" style="stop-color:#d0979e"/><stop offset=".93" style="stop-color:#b770d2"/><stop offset="1" style="stop-color:#ae63e4"/></linearGradient><path d="M1078.3,328.2h-0.4c-8.3-0.2-14.8-7.1-14.6-15.4c2.2-76.2-14.9-133.7-50.9-170.7 c-35.6-36.7-91.5-55.3-166.1-55.3c-8.3,0-15-6.7-15-15s6.7-15,15-15c83,0,146.2,21.6,187.6,64.4c41.9,43.1,61.9,107.8,59.4,192.5 C1093,321.7,1086.4,328.2,1078.3,328.2z" class="st20"/><linearGradient id="SVGID_21_" x1="895.035" x2="633.805" y1="215.75" y2="215.75" gradientTransform="matrix(1 0 0 1 0 -144)" gradientUnits="userSpaceOnUse"><stop offset="0" style="stop-color:#ffdd40"/><stop offset=".07" style="stop-color:#f8d24f"/><stop offset=".4" style="stop-color:#d8a38f"/><stop offset=".67" style="stop-color:#c180bd"/><stop offset=".88" style="stop-color:#b36bd9"/><stop offset="1" style="stop-color:#ae63e4"/></linearGradient><path d="M796.3,86.8h-50c-8.3,0-15-6.7-15-15s6.7-15,15-15h50c8.3,0,15,6.7,15,15S804.5,86.8,796.3,86.8z" class="st21"/><linearGradient id="SVGID_22_" x1="870.195" x2="390.185" y1="215.75" y2="215.75" gradientTransform="matrix(1 0 0 1 0 -144)" gradientUnits="userSpaceOnUse"><stop offset="0" style="stop-color:#ffdd40"/><stop offset=".12" style="stop-color:#f0c65f"/><stop offset=".33" style="stop-color:#d8a38e"/><stop offset=".53" style="stop-color:#c687b3"/><stop offset=".71" style="stop-color:#b973ce"/><stop offset=".87" style="stop-color:#b167de"/><stop offset="1" style="stop-color:#ae63e4"/></linearGradient><path d="M701.3,86.8h-117c-8.3,0-15-6.7-15-15s6.7-15,15-15h117c8.3,0,15,6.7,15,15S709.5,86.8,701.3,86.8z" class="st22"/><linearGradient id="SVGID_23_" x1="1181.785" x2="1033.925" y1="408.681" y2="408.681" gradientTransform="matrix(1 0 0 1 0 -144)" gradientUnits="userSpaceOnUse"><stop offset="0" style="stop-color:#ffdd40"/><stop offset=".29" style="stop-color:#fedb42"/><stop offset=".44" style="stop-color:#fad54a"/><stop offset=".57" style="stop-color:#f3cb58"/><stop offset=".68" style="stop-color:#eabd6b"/><stop offset=".77" style="stop-color:#ddaa85"/><stop offset=".86" style="stop-color:#ce93a4"/><stop offset=".95" style="stop-color:#bc78c7"/><stop offset="1" style="stop-color:#ae63e4"/></linearGradient><path d="M1121.9,358.7c-6.9,0-12.5-5.6-12.5-12.5c0-80.4-6.6-122.6-19.5-158.5c-2.5-6.5,0.8-13.7,7.2-16.1 c6.5-2.5,13.7,0.8,16.1,7.2c0.1,0.1,0.1,0.3,0.2,0.4c14,38.6,21,85.6,21,167C1134.4,353,1128.8,358.7,1121.9,358.7L1121.9,358.7z" class="st23"/><linearGradient id="SVGID_24_" x1="1287.055" x2="699.675" y1="238.451" y2="238.451" gradientTransform="matrix(1 0 0 1 0 -144)" gradientUnits="userSpaceOnUse"><stop offset="0" style="stop-color:#ffdd40"/><stop offset=".13" style="stop-color:#fcd946"/><stop offset=".29" style="stop-color:#f4cd55"/><stop offset=".47" style="stop-color:#e7ba70"/><stop offset=".67" style="stop-color:#d59e94"/><stop offset=".87" style="stop-color:#be7cc3"/><stop offset="1" style="stop-color:#ae63e4"/></linearGradient><path d="M1086.2,161.5c-4.6,0-8.8-2.5-11-6.5c-14.8-27.6-36.1-51.1-62-68.6c-23.6-15.8-52-27.3-84.5-34.2 c-6.8-1.4-11.1-8.1-9.6-14.8c1.4-6.8,8.1-11.1,14.8-9.6c75.4,15.9,130.3,54.7,163.3,115.2c3.3,6.1,1,13.7-5,17 C1090.3,160.9,1088.3,161.5,1086.2,161.5L1086.2,161.5z" class="st24"/><linearGradient id="SVGID_25_" x1="1026.325" x2="641.015" y1="176.75" y2="176.75" gradientTransform="matrix(1 0 0 1 0 -144)" gradientUnits="userSpaceOnUse"><stop offset="0" style="stop-color:#ffdd40"/><stop offset=".2" style="stop-color:#ecc067"/><stop offset=".58" style="stop-color:#cb8eaa"/><stop offset=".86" style="stop-color:#b66fd4"/><stop offset="1" style="stop-color:#ae63e4"/></linearGradient><path d="M890.3,46.3c-0.4,0-0.8,0-1.2,0c-13.6-1.3-28-2-42.8-2h-49c-6.9,0-12.5-5.6-12.5-12.5s5.6-12.5,12.5-12.5h49 c15.6,0,30.8,0.7,45.2,2.1c6.9,0.7,11.9,6.8,11.2,13.7C902,41.4,896.7,46.2,890.3,46.3L890.3,46.3z" class="st25"/><linearGradient id="SVGID_26_" x1="931.685" x2="417.395" y1="175.75" y2="175.75" gradientTransform="matrix(1 0 0 1 0 -144)" gradientUnits="userSpaceOnUse"><stop offset="0" style="stop-color:#ffdd40"/><stop offset=".2" style="stop-color:#e9bd6c"/><stop offset=".47" style="stop-color:#d0969f"/><stop offset=".7" style="stop-color:#be7ac5"/><stop offset=".88" style="stop-color:#b269dc"/><stop offset="1" style="stop-color:#ae63e4"/></linearGradient><path d="M754.3,44.3H621.8c-6.9,0-12.5-5.6-12.5-12.5s5.6-12.5,12.5-12.5h132.5c6.9,0,12.5,5.6,12.5,12.5 C766.8,38.7,761.2,44.3,754.3,44.3z" class="st26"/><linearGradient id="SVGID_27_" x1="636.375" x2="512.855" y1="175.75" y2="175.75" gradientTransform="matrix(1 0 0 1 0 -144)" gradientUnits="userSpaceOnUse"><stop offset="0" style="stop-color:#ffdd40"/><stop offset=".01" style="stop-color:#fcd945"/><stop offset=".12" style="stop-color:#e8ba6f"/><stop offset=".24" style="stop-color:#d69f93"/><stop offset=".36" style="stop-color:#c789b1"/><stop offset=".49" style="stop-color:#bc78c7"/><stop offset=".63" style="stop-color:#b46cd7"/><stop offset=".79" style="stop-color:#af65e1"/><stop offset="1" style="stop-color:#ae63e4"/></linearGradient><path d="M584.3,44.3h-12.8c-6.9,0-12.5-5.6-12.5-12.5s5.6-12.5,12.5-12.5h12.8c6.9,0,12.5,5.6,12.5,12.5 C596.8,38.7,591.2,44.3,584.3,44.3z" class="st27"/><linearGradient id="SVGID_28_" x1="617.965" x2="395.925" y1="175.75" y2="175.75" gradientTransform="matrix(1 0 0 1 0 -144)" gradientUnits="userSpaceOnUse"><stop offset="0" style="stop-color:#ffdd40"/><stop offset=".01" style="stop-color:#fdda44"/><stop offset=".12" style="stop-color:#e8bb6e"/><stop offset=".24" style="stop-color:#d6a092"/><stop offset=".37" style="stop-color:#c88ab0"/><stop offset=".5" style="stop-color:#bc79c7"/><stop offset=".64" style="stop-color:#b46cd7"/><stop offset=".79" style="stop-color:#af65e1"/><stop offset="1" style="stop-color:#ae63e4"/></linearGradient><path d="M534.3,44.3h-43c-6.9,0-12.5-5.6-12.5-12.5s5.6-12.5,12.5-12.5h43c6.9,0,12.5,5.6,12.5,12.5 C546.8,38.7,541.2,44.3,534.3,44.3z" class="st28"/><linearGradient id="SVGID_29_" x1="1250.655" x2="1036.825" y1="372.714" y2="372.714" gradientTransform="matrix(1 0 0 1 0 -144)" gradientUnits="userSpaceOnUse"><stop offset="0" style="stop-color:#ffdd40"/><stop offset=".3" style="stop-color:#fedb42"/><stop offset=".45" style="stop-color:#fad54a"/><stop offset=".57" style="stop-color:#f3cb58"/><stop offset=".68" style="stop-color:#eabd6b"/><stop offset=".78" style="stop-color:#deab84"/><stop offset=".86" style="stop-color:#ce94a2"/><stop offset=".94" style="stop-color:#bd79c6"/><stop offset="1" style="stop-color:#ae63e4"/></linearGradient><path d="M1164.6,328.7c-9.7,0-17.5-7.8-17.5-17.5c0-60.5-9.8-113.5-29-157.4c-4.1-8.7-0.4-19.2,8.3-23.3 c8.7-4.1,19.2-0.4,23.3,8.3c0.2,0.3,0.3,0.7,0.4,1c21.2,48.4,32,106.1,32,171.4C1182.1,320.9,1174.3,328.7,1164.6,328.7 L1164.6,328.7z" class="st29"/><linearGradient id="SVGID_30_" x1="1370.105" x2="596.885" y1="187.27" y2="187.27" gradientTransform="matrix(1 0 0 1 0 -144)" gradientUnits="userSpaceOnUse"><stop offset="0" style="stop-color:#ffdd40"/><stop offset=".13" style="stop-color:#fcd945"/><stop offset=".29" style="stop-color:#f5ce54"/><stop offset=".47" style="stop-color:#e9bc6c"/><stop offset=".65" style="stop-color:#d8a38e"/><stop offset=".84" style="stop-color:#c383b9"/><stop offset="1" style="stop-color:#ae63e4"/></linearGradient><path d="M1104.7,112.9c-5.6,0-10.8-2.6-14.1-7.1c-41.1-55.9-104.9-88.6-189.5-97.1C891.5,8,884.2-0.4,885-10.1 s9.1-16.9,18.8-16.1c0.3,0,0.6,0.1,0.9,0.1c94.8,9.6,166.9,47,214.1,111.2c5.7,7.8,4.1,18.8-3.7,24.5 C1112,111.7,1108.4,112.9,1104.7,112.9L1104.7,112.9z" class="st30"/><linearGradient id="SVGID_31_" x1="1088.085" x2="372.975" y1="132.75" y2="132.75" gradientTransform="matrix(1 0 0 1 0 -144)" gradientUnits="userSpaceOnUse"><stop offset="0" style="stop-color:#ffdd40"/><stop offset=".1" style="stop-color:#f2ca5a"/><stop offset=".32" style="stop-color:#daa58b"/><stop offset=".52" style="stop-color:#c789b1"/><stop offset=".71" style="stop-color:#b974cd"/><stop offset=".88" style="stop-color:#b167de"/><stop offset="1" style="stop-color:#ae63e4"/></linearGradient><path d="M841.3,6.3h-184c-9.7,0-17.5-7.8-17.5-17.5s7.8-17.5,17.5-17.5h184c9.7,0,17.5,7.8,17.5,17.5 S850.9,6.3,841.3,6.3z" class="st31"/><linearGradient id="SVGID_32_" x1="736.945" x2="377.755" y1="132.75" y2="132.75" gradientTransform="matrix(1 0 0 1 0 -144)" gradientUnits="userSpaceOnUse"><stop offset="0" style="stop-color:#ffdd40"/><stop offset=".02" style="stop-color:#fbd749"/><stop offset=".13" style="stop-color:#e6b872"/><stop offset=".24" style="stop-color:#d59e95"/><stop offset=".36" style="stop-color:#c788b2"/><stop offset=".49" style="stop-color:#bc78c8"/><stop offset=".62" style="stop-color:#b46cd8"/><stop offset=".78" style="stop-color:#af65e1"/><stop offset="1" style="stop-color:#ae63e4"/></linearGradient><path d="M604.3,6.3h-75c-9.7,0-17.5-7.8-17.5-17.5s7.8-17.5,17.5-17.5h75c9.7,0,17.5,7.8,17.5,17.5 S613.9,6.3,604.3,6.3z" class="st32"/><linearGradient id="SVGID_33_" x1="565.921" x2="347.141" y1="132.428" y2="133.108" gradientTransform="matrix(1 0 0 1 0 -144)" gradientUnits="userSpaceOnUse"><stop offset="0" style="stop-color:#ffdd40"/><stop offset="0" style="stop-color:#fddb43"/><stop offset=".06" style="stop-color:#ebbf69"/><stop offset=".13" style="stop-color:#dba68a"/><stop offset=".2" style="stop-color:#cd91a6"/><stop offset=".28" style="stop-color:#c180bd"/><stop offset=".37" style="stop-color:#b973ce"/><stop offset=".49" style="stop-color:#b36adb"/><stop offset=".64" style="stop-color:#af65e2"/><stop offset="1" style="stop-color:#ae63e4"/></linearGradient><path d="M478.3,6.3h-32c-9.7,0-17.5-7.8-17.5-17.5s7.8-17.5,17.5-17.5h32c9.7,0,17.5,7.8,17.5,17.5 S487.9,6.3,478.3,6.3z" class="st33"/><linearGradient id="SVGID_34_" x1="1244.085" x2="1150.845" y1="409.829" y2="409.829" gradientTransform="matrix(1 0 0 1 0 -144)" gradientUnits="userSpaceOnUse"><stop offset="0" style="stop-color:#ffdd40"/><stop offset=".27" style="stop-color:#fedb42"/><stop offset=".43" style="stop-color:#fad54b"/><stop offset=".56" style="stop-color:#f3cb59"/><stop offset=".67" style="stop-color:#e9bc6d"/><stop offset=".77" style="stop-color:#dca986"/><stop offset=".86" style="stop-color:#cd91a6"/><stop offset=".95" style="stop-color:#ba75cb"/><stop offset="1" style="stop-color:#ae63e4"/></linearGradient><path d="M1204.2,327.2c-5.5,0-10-4.5-10-10c0-36.1-2.8-70.1-8.4-101c-0.9-5.4,2.8-10.6,8.2-11.5 c5.3-0.9,10.4,2.6,11.4,7.9c5.8,32,8.7,67.2,8.7,104.5C1214.2,322.7,1209.7,327.2,1204.2,327.2L1204.2,327.2z" class="st34"/><linearGradient id="SVGID_35_" x1="1231.695" x2="1129.385" y1="308.878" y2="308.878" gradientTransform="matrix(1 0 0 1 0 -144)" gradientUnits="userSpaceOnUse"><stop offset="0" style="stop-color:#ffdd40"/><stop offset=".27" style="stop-color:#fedb42"/><stop offset=".42" style="stop-color:#fad54b"/><stop offset=".55" style="stop-color:#f3ca59"/><stop offset=".66" style="stop-color:#e9bb6d"/><stop offset=".77" style="stop-color:#dca887"/><stop offset=".86" style="stop-color:#cc90a7"/><stop offset=".95" style="stop-color:#ba75cc"/><stop offset="1" style="stop-color:#ae63e4"/></linearGradient><path d="M1188.9,193.4c-4.6,0-8.6-3.1-9.7-7.5c-3.1-12.1-6.7-24-11-35.7c-2.1-5.1,0.4-10.9,5.6-13s10.9,0.4,13,5.6 c0.1,0.2,0.1,0.4,0.2,0.6c4.4,12,8.3,24.6,11.6,37.6c1.4,5.4-1.9,10.8-7.2,12.2l0,0C1190.6,193.3,1189.7,193.4,1188.9,193.4z" class="st35"/><linearGradient id="SVGID_36_" x1="1207.135" x2="1105.655" y1="249.743" y2="249.743" gradientTransform="matrix(1 0 0 1 0 -144)" gradientUnits="userSpaceOnUse"><stop offset="0" style="stop-color:#ffdd40"/><stop offset=".18" style="stop-color:#fdda43"/><stop offset=".34" style="stop-color:#f8d24e"/><stop offset=".48" style="stop-color:#efc560"/><stop offset=".63" style="stop-color:#e3b279"/><stop offset=".76" style="stop-color:#d39a9a"/><stop offset=".9" style="stop-color:#bf7dc1"/><stop offset="1" style="stop-color:#ae63e4"/></linearGradient><path d="M1164.6,126.1c-3.8,0-7.3-2.2-9-5.6c-3.3-6.9-6.9-13.6-10.7-20.1c-2.7-4.8-1-10.9,3.8-13.6 c4.7-2.7,10.7-1.1,13.5,3.5c4,6.9,7.9,14.1,11.4,21.4c2.4,5,0.3,11-4.6,13.4C1167.6,125.8,1166.1,126.1,1164.6,126.1L1164.6,126.1 z" class="st36"/><linearGradient id="SVGID_37_" x1="1295.775" x2="822.875" y1="164.959" y2="164.959" gradientTransform="matrix(1 0 0 1 0 -144)" gradientUnits="userSpaceOnUse"><stop offset="0" style="stop-color:#ffdd40"/><stop offset=".13" style="stop-color:#fcd945"/><stop offset=".29" style="stop-color:#f5ce55"/><stop offset=".47" style="stop-color:#e8bb6e"/><stop offset=".66" style="stop-color:#d7a092"/><stop offset=".86" style="stop-color:#c07fbf"/><stop offset="1" style="stop-color:#ae63e4"/></linearGradient><path d="M1134.1,76.4c-3.1,0-6.1-1.4-8-3.9c-30-39.3-70.5-68.7-120.4-87.6c-5.1-2.1-7.6-7.9-5.5-13 c2-5,7.6-7.5,12.6-5.7c53.4,20.2,96.9,51.9,129.2,94.2c3.4,4.4,2.5,10.7-1.9,14C1138.5,75.7,1136.3,76.4,1134.1,76.4z" class="st37"/><linearGradient id="SVGID_38_" x1="1245.925" x2="432.965" y1="100.65" y2="100.65" gradientTransform="matrix(1 0 0 1 0 -144)" gradientUnits="userSpaceOnUse"><stop offset="0" style="stop-color:#ffdd40"/><stop offset="1" style="stop-color:#ae63e4"/></linearGradient><path d="M975.2-25.4c-0.9,0-1.8-0.1-2.6-0.4C934.5-36,891-41.2,843.3-41.2c-33.7,0-67.9,0.1-97,0.1l0,0 c-5.5,0-10-4.5-10-10s4.5-10,10-10c29-0.1,63.3-0.1,97-0.1c49.5,0,94.7,5.4,134.6,16.1c5.3,1.4,8.5,6.9,7.1,12.2 C983.7-28.4,979.8-25.4,975.2-25.4z" class="st38"/><linearGradient id="SVGID_39_" x1="791.465" x2="574.805" y1="93" y2="93" gradientTransform="matrix(1 0 0 1 0 -144)" gradientUnits="userSpaceOnUse"><stop offset="0" style="stop-color:#ffdd40"/><stop offset=".14" style="stop-color:#edc265"/><stop offset=".34" style="stop-color:#d7a092"/><stop offset=".53" style="stop-color:#c586b6"/><stop offset=".71" style="stop-color:#b873cf"/><stop offset=".87" style="stop-color:#b167df"/><stop offset="1" style="stop-color:#ae63e4"/></linearGradient><path d="M665.6-40.9c-5.5,0-10-4.5-10-10s4.5-10,10-10l24.8-0.1h21.5l0,0c5.5,0,10,4.5,10,10s-4.5,10-10,10l0,0 h-21.5L665.6-40.9L665.6-40.9z" class="st39"/><linearGradient id="SVGID_40_" x1="795.545" x2="317.365" y1="93.2" y2="93.2" gradientTransform="matrix(1 0 0 1 0 -144)" gradientUnits="userSpaceOnUse"><stop offset="0" style="stop-color:#ffdd40"/><stop offset=".1" style="stop-color:#eec462"/><stop offset=".23" style="stop-color:#dba689"/><stop offset=".37" style="stop-color:#cb8eaa"/><stop offset=".52" style="stop-color:#be7bc4"/><stop offset=".67" style="stop-color:#b56ed6"/><stop offset=".82" style="stop-color:#b066e1"/><stop offset="1" style="stop-color:#ae63e4"/></linearGradient><path d="M505.8-40.7c-5.5,0-10-4.5-10-10s4.5-10,10-10c39.8,0,80,0,126.4-0.1l0,0c5.5,0,10,4.5,10,10s-4.5,10-10,10 C585.8-40.7,545.6-40.7,505.8-40.7z" class="st40"/><path d="M1164.8,427.2c-9.7,0-17.5-7.8-17.5-17.5v-50.1c0-9.7,7.8-17.5,17.5-17.5s17.5,7.8,17.5,17.5v50.1 C1182.3,419.3,1174.4,427.2,1164.8,427.2z" class="st41"/><path d="M1122.2,524.3c-6.9,0-12.5-5.6-12.5-12.5V384.5c0-6.9,5.6-12.5,12.5-12.5c6.9,0,12.5,5.6,12.5,12.5V512 C1134.7,518.8,1129.1,524.3,1122.2,524.3z" class="st41"/><path d="M1122.2,580.5c-6.9,0-12.5-5.6-12.5-12.5V552c0-6.9,5.6-12.5,12.5-12.5c6.9,0,12.5,5.6,12.5,12.5V568 C1134.7,574.8,1129.1,580.5,1122.2,580.5z" class="st41"/><path d="M1164.8,623c-9.7,0-17.5-7.8-17.5-17.5l0,0V457.8c0-9.7,7.8-17.5,17.5-17.5s17.5,7.8,17.5,17.5v147.8 C1182.3,615.2,1174.4,623,1164.8,623z" class="st41"/><path d="M1204.6,379c-5.5,0-10-4.5-10-10v-15.9c0-5.5,4.5-10,10-10s10,4.5,10,10V369 C1214.6,374.5,1210.2,379,1204.6,379z" class="st41"/><path d="M1204.6,490c-5.5,0-10-4.5-10-10v-76.2c0-5.5,4.5-10,10-10s10,4.5,10,10V480 C1214.6,485.7,1210.2,490,1204.6,490z" class="st41"/></g></g></svg>