<svg xmlns="http://www.w3.org/2000/svg" xmlns:xlink="http://www.w3.org/1999/xlink" id="Layer_1" x="0" y="0" version="1.1" viewBox="0 0 785.9 684.3" xml:space="preserve" style="enable-background:new 0 0 785.9 684.3"><style type="text/css">.st0{fill:url(#SVGID_1_)}.st1{fill:url(#SVGID_2_)}.st2{fill:url(#SVGID_3_)}.st3{fill:url(#SVGID_4_)}.st4{fill:url(#SVGID_5_)}.st5{fill:url(#SVGID_6_)}.st6{fill:url(#SVGID_7_)}.st7{fill:url(#SVGID_8_)}.st8{fill:url(#SVGID_9_)}.st9{fill:url(#SVGID_10_)}.st10{fill:url(#SVGID_11_)}.st11{fill:url(#SVGID_12_)}.st12{fill:url(#SVGID_13_)}.st13{fill:url(#SVGID_14_)}.st14{fill:url(#SVGID_15_)}.st15{fill:url(#SVGID_16_)}.st16{fill:url(#SVGID_17_)}.st17{fill:url(#SVGID_18_)}.st18{fill:url(#SVGID_19_)}.st19{fill:url(#SVGID_20_)}.st20{fill:url(#SVGID_21_)}.st21{fill:#ffdd40}</style><title>Asset 3</title><g><g id="Layer_1-2"><linearGradient id="SVGID_1_" x1="902.315" x2="46.145" y1="375.305" y2="375.305" gradientTransform="matrix(1 0 0 -1 0 686)" gradientUnits="userSpaceOnUse"><stop offset="0" style="stop-color:#ffdd40"/><stop offset=".12" style="stop-color:#fcd846"/><stop offset=".29" style="stop-color:#f3cb58"/><stop offset=".48" style="stop-color:#e5b576"/><stop offset=".7" style="stop-color:#d0979e"/><stop offset=".93" style="stop-color:#b770d2"/><stop offset="1" style="stop-color:#ae63e4"/></linearGradient><path d="M612.6,446.4h-0.4c-8.3-0.2-14.8-7.1-14.6-15.4c2.2-76.2-14.9-133.7-50.9-170.7 c-35.6-36.7-91.5-55.3-166.1-55.3c-8.3,0-15-6.7-15-15s6.7-15,15-15c83,0,146.1,21.6,187.6,64.4c41.9,43.1,61.9,107.8,59.4,192.5 C627.3,439.9,620.7,446.4,612.6,446.4z" class="st0"/><linearGradient id="SVGID_2_" x1="429.335" x2="168.105" y1="496" y2="496" gradientTransform="matrix(1 0 0 -1 0 686)" gradientUnits="userSpaceOnUse"><stop offset="0" style="stop-color:#ffdd40"/><stop offset=".07" style="stop-color:#f8d24f"/><stop offset=".4" style="stop-color:#d8a38f"/><stop offset=".67" style="stop-color:#c180bd"/><stop offset=".88" style="stop-color:#b36bd9"/><stop offset="1" style="stop-color:#ae63e4"/></linearGradient><path d="M330.6,205h-50c-8.3,0-15-6.7-15-15s6.7-15,15-15h50c8.3,0,15,6.7,15,15S338.8,205,330.6,205z" class="st1"/><linearGradient id="SVGID_3_" x1="404.495" x2="-75.515" y1="496" y2="496" gradientTransform="matrix(1 0 0 -1 0 686)" gradientUnits="userSpaceOnUse"><stop offset="0" style="stop-color:#ffdd40"/><stop offset=".12" style="stop-color:#f0c65f"/><stop offset=".33" style="stop-color:#d8a38e"/><stop offset=".53" style="stop-color:#c687b3"/><stop offset=".71" style="stop-color:#b973ce"/><stop offset=".87" style="stop-color:#b167de"/><stop offset="1" style="stop-color:#ae63e4"/></linearGradient><path d="M235.6,205h-117c-8.3,0-15-6.7-15-15s6.7-15,15-15h117c8.3,0,15,6.7,15,15S243.8,205,235.6,205z" class="st2"/><linearGradient id="SVGID_4_" x1="716.085" x2="568.225" y1="303.109" y2="303.109" gradientTransform="matrix(1 0 0 -1 0 686)" gradientUnits="userSpaceOnUse"><stop offset="0" style="stop-color:#ffdd40"/><stop offset=".29" style="stop-color:#fedb42"/><stop offset=".44" style="stop-color:#fad54a"/><stop offset=".57" style="stop-color:#f3cb58"/><stop offset=".68" style="stop-color:#eabd6b"/><stop offset=".77" style="stop-color:#ddaa85"/><stop offset=".86" style="stop-color:#ce93a4"/><stop offset=".95" style="stop-color:#bc78c7"/><stop offset="1" style="stop-color:#ae63e4"/></linearGradient><path d="M656.2,476.9c-6.9,0-12.5-5.6-12.5-12.5c0-80.4-6.6-122.6-19.5-158.5c-2.5-6.5,0.8-13.7,7.2-16.1 c6.5-2.5,13.7,0.8,16.1,7.2c0.1,0.1,0.1,0.3,0.2,0.4c14,38.6,21,85.6,21,167C668.7,471.3,663.1,476.9,656.2,476.9 C656.2,476.9,656.2,476.9,656.2,476.9z" class="st3"/><linearGradient id="SVGID_5_" x1="821.355" x2="233.975" y1="473.342" y2="473.342" gradientTransform="matrix(1 0 0 -1 0 686)" gradientUnits="userSpaceOnUse"><stop offset="0" style="stop-color:#ffdd40"/><stop offset=".13" style="stop-color:#fcd946"/><stop offset=".29" style="stop-color:#f4cd55"/><stop offset=".47" style="stop-color:#e7ba70"/><stop offset=".67" style="stop-color:#d59e94"/><stop offset=".87" style="stop-color:#be7cc3"/><stop offset="1" style="stop-color:#ae63e4"/></linearGradient><path d="M620.5,279.7c-4.6,0-8.8-2.5-11-6.5c-14.8-27.6-36.1-51.1-62-68.6c-23.6-15.8-52-27.3-84.5-34.2 c-6.8-1.4-11.1-8.1-9.6-14.8c1.4-6.8,8.1-11.1,14.8-9.6c75.4,15.9,130.3,54.7,163.3,115.3c3.3,6.1,1,13.7-5,17 C624.6,279.1,622.6,279.7,620.5,279.7L620.5,279.7z" class="st4"/><linearGradient id="SVGID_6_" x1="560.625" x2="175.315" y1="535.02" y2="535.02" gradientTransform="matrix(1 0 0 -1 0 686)" gradientUnits="userSpaceOnUse"><stop offset="0" style="stop-color:#ffdd40"/><stop offset=".2" style="stop-color:#ecc067"/><stop offset=".58" style="stop-color:#cb8eaa"/><stop offset=".86" style="stop-color:#b66fd4"/><stop offset="1" style="stop-color:#ae63e4"/></linearGradient><path d="M424.6,164.5c-0.4,0-0.8,0-1.2,0c-13.6-1.3-28-2-42.8-2h-49c-6.9,0-12.5-5.6-12.5-12.5 c0-6.9,5.6-12.5,12.5-12.5h49c15.6,0,30.8,0.7,45.2,2.1c6.9,0.7,11.9,6.8,11.2,13.7C436.3,159.6,431,164.4,424.6,164.5 L424.6,164.5z" class="st5"/><linearGradient id="SVGID_7_" x1="465.985" x2="-48.305" y1="536.02" y2="536.02" gradientTransform="matrix(1 0 0 -1 0 686)" gradientUnits="userSpaceOnUse"><stop offset="0" style="stop-color:#ffdd40"/><stop offset=".2" style="stop-color:#e9bd6c"/><stop offset=".47" style="stop-color:#d0969f"/><stop offset=".7" style="stop-color:#be7ac5"/><stop offset=".88" style="stop-color:#b269dc"/><stop offset="1" style="stop-color:#ae63e4"/></linearGradient><path d="M288.6,162.5H156.1c-6.9,0-12.5-5.6-12.5-12.5c0-6.9,5.6-12.5,12.5-12.5h132.5c6.9,0,12.5,5.6,12.5,12.5 C301.1,156.9,295.5,162.5,288.6,162.5z" class="st6"/><linearGradient id="SVGID_8_" x1="170.675" x2="47.155" y1="536.02" y2="536.02" gradientTransform="matrix(1 0 0 -1 0 686)" gradientUnits="userSpaceOnUse"><stop offset="0" style="stop-color:#ffdd40"/><stop offset=".01" style="stop-color:#fcd945"/><stop offset=".12" style="stop-color:#e8ba6f"/><stop offset=".24" style="stop-color:#d69f93"/><stop offset=".36" style="stop-color:#c789b1"/><stop offset=".49" style="stop-color:#bc78c7"/><stop offset=".63" style="stop-color:#b46cd7"/><stop offset=".79" style="stop-color:#af65e1"/><stop offset="1" style="stop-color:#ae63e4"/></linearGradient><path d="M118.6,162.5h-12.8c-6.9,0-12.5-5.6-12.5-12.5c0-6.9,5.6-12.5,12.5-12.5h12.8c6.9,0,12.5,5.6,12.5,12.5 C131.1,156.9,125.5,162.5,118.6,162.5z" class="st7"/><linearGradient id="SVGID_9_" x1="152.265" x2="-69.775" y1="536.02" y2="536.02" gradientTransform="matrix(1 0 0 -1 0 686)" gradientUnits="userSpaceOnUse"><stop offset="0" style="stop-color:#ffdd40"/><stop offset=".01" style="stop-color:#fdda44"/><stop offset=".12" style="stop-color:#e8bb6e"/><stop offset=".24" style="stop-color:#d6a092"/><stop offset=".37" style="stop-color:#c88ab0"/><stop offset=".5" style="stop-color:#bc79c7"/><stop offset=".64" style="stop-color:#b46cd7"/><stop offset=".79" style="stop-color:#af65e1"/><stop offset="1" style="stop-color:#ae63e4"/></linearGradient><path d="M68.6,162.5h-43c-6.9,0-12.5-5.6-12.5-12.5c0-6.9,5.6-12.5,12.5-12.5h43c6.9,0,12.5,5.6,12.5,12.5 C81.1,156.9,75.5,162.5,68.6,162.5z" class="st8"/><linearGradient id="SVGID_10_" x1="784.955" x2="571.125" y1="339.058" y2="339.058" gradientTransform="matrix(1 0 0 -1 0 686)" gradientUnits="userSpaceOnUse"><stop offset="0" style="stop-color:#ffdd40"/><stop offset=".3" style="stop-color:#fedb42"/><stop offset=".45" style="stop-color:#fad54a"/><stop offset=".57" style="stop-color:#f3cb58"/><stop offset=".68" style="stop-color:#eabd6b"/><stop offset=".78" style="stop-color:#deab84"/><stop offset=".86" style="stop-color:#ce94a2"/><stop offset=".94" style="stop-color:#bd79c6"/><stop offset="1" style="stop-color:#ae63e4"/></linearGradient><path d="M698.9,446.9c-9.7,0-17.5-7.8-17.5-17.5c0-60.5-9.8-113.5-29-157.4c-4.1-8.7-0.4-19.2,8.3-23.3 c8.7-4.1,19.2-0.4,23.3,8.3c0.2,0.3,0.3,0.7,0.4,1c21.2,48.4,32,106.1,32,171.4C716.4,439.1,708.6,446.9,698.9,446.9 C698.9,446.9,698.9,446.9,698.9,446.9z" class="st9"/><linearGradient id="SVGID_11_" x1="904.405" x2="131.185" y1="524.535" y2="524.535" gradientTransform="matrix(1 0 0 -1 0 686)" gradientUnits="userSpaceOnUse"><stop offset="0" style="stop-color:#ffdd40"/><stop offset=".13" style="stop-color:#fcd945"/><stop offset=".29" style="stop-color:#f5ce54"/><stop offset=".47" style="stop-color:#e9bc6c"/><stop offset=".65" style="stop-color:#d8a38e"/><stop offset=".84" style="stop-color:#c383b9"/><stop offset="1" style="stop-color:#ae63e4"/></linearGradient><path d="M639,231.1c-5.6,0-10.8-2.6-14.1-7.1c-41.1-55.9-104.9-88.6-189.5-97.1c-9.6-0.7-16.9-9.1-16.1-18.8 s9.1-16.9,18.8-16.1c0.3,0,0.6,0.1,0.9,0.1c94.8,9.6,166.9,47,214.1,111.2c5.7,7.8,4.1,18.8-3.7,24.5 C646.3,229.9,642.7,231.1,639,231.1L639,231.1z" class="st10"/><linearGradient id="SVGID_12_" x1="622.385" x2="-92.725" y1="579.02" y2="579.02" gradientTransform="matrix(1 0 0 -1 0 686)" gradientUnits="userSpaceOnUse"><stop offset="0" style="stop-color:#ffdd40"/><stop offset=".1" style="stop-color:#f2ca5a"/><stop offset=".32" style="stop-color:#daa58b"/><stop offset=".52" style="stop-color:#c789b1"/><stop offset=".71" style="stop-color:#b974cd"/><stop offset=".88" style="stop-color:#b167de"/><stop offset="1" style="stop-color:#ae63e4"/></linearGradient><path d="M375.6,124.5h-184c-9.7,0-17.5-7.8-17.5-17.5s7.8-17.5,17.5-17.5h184c9.7,0,17.5,7.8,17.5,17.5 S385.2,124.5,375.6,124.5z" class="st11"/><linearGradient id="SVGID_13_" x1="271.245" x2="-87.945" y1="579.02" y2="579.02" gradientTransform="matrix(1 0 0 -1 0 686)" gradientUnits="userSpaceOnUse"><stop offset="0" style="stop-color:#ffdd40"/><stop offset=".02" style="stop-color:#fbd749"/><stop offset=".13" style="stop-color:#e6b872"/><stop offset=".24" style="stop-color:#d59e95"/><stop offset=".36" style="stop-color:#c788b2"/><stop offset=".49" style="stop-color:#bc78c8"/><stop offset=".62" style="stop-color:#b46cd8"/><stop offset=".78" style="stop-color:#af65e1"/><stop offset="1" style="stop-color:#ae63e4"/></linearGradient><path d="M138.6,124.5h-75c-9.7,0-17.5-7.8-17.5-17.5s7.8-17.5,17.5-17.5h75c9.7,0,17.5,7.8,17.5,17.5 S148.2,124.5,138.6,124.5z" class="st12"/><linearGradient id="SVGID_14_" x1="100.222" x2="-118.557" y1="579.302" y2="578.622" gradientTransform="matrix(1 0 0 -1 0 686)" gradientUnits="userSpaceOnUse"><stop offset="0" style="stop-color:#ffdd40"/><stop offset="0" style="stop-color:#fddb43"/><stop offset=".06" style="stop-color:#ebbf69"/><stop offset=".13" style="stop-color:#dba68a"/><stop offset=".2" style="stop-color:#cd91a6"/><stop offset=".28" style="stop-color:#c180bd"/><stop offset=".37" style="stop-color:#b973ce"/><stop offset=".49" style="stop-color:#b36adb"/><stop offset=".64" style="stop-color:#af65e2"/><stop offset="1" style="stop-color:#ae63e4"/></linearGradient><path d="M12.6,124.5h-32c-9.7,0-17.5-7.8-17.5-17.5s7.8-17.5,17.5-17.5h32c9.7,0,17.5,7.8,17.5,17.5 S22.2,124.5,12.6,124.5z" class="st13"/><linearGradient id="SVGID_15_" x1="778.385" x2="685.145" y1="301.922" y2="301.922" gradientTransform="matrix(1 0 0 -1 0 686)" gradientUnits="userSpaceOnUse"><stop offset="0" style="stop-color:#ffdd40"/><stop offset=".27" style="stop-color:#fedb42"/><stop offset=".43" style="stop-color:#fad54b"/><stop offset=".56" style="stop-color:#f3cb59"/><stop offset=".67" style="stop-color:#e9bc6d"/><stop offset=".77" style="stop-color:#dca986"/><stop offset=".86" style="stop-color:#cd91a6"/><stop offset=".95" style="stop-color:#ba75cb"/><stop offset="1" style="stop-color:#ae63e4"/></linearGradient><path d="M738.5,445.4c-5.5,0-10-4.5-10-10c0-36.1-2.8-70.1-8.4-101c-0.9-5.4,2.8-10.6,8.2-11.5 c5.3-0.9,10.4,2.6,11.4,7.9c5.8,32,8.7,67.2,8.7,104.5C748.5,440.9,744,445.4,738.5,445.4C738.5,445.4,738.5,445.4,738.5,445.4z" class="st14"/><linearGradient id="SVGID_16_" x1="765.995" x2="663.685" y1="402.851" y2="402.851" gradientTransform="matrix(1 0 0 -1 0 686)" gradientUnits="userSpaceOnUse"><stop offset="0" style="stop-color:#ffdd40"/><stop offset=".27" style="stop-color:#fedb42"/><stop offset=".42" style="stop-color:#fad54b"/><stop offset=".55" style="stop-color:#f3ca59"/><stop offset=".66" style="stop-color:#e9bb6d"/><stop offset=".77" style="stop-color:#dca887"/><stop offset=".86" style="stop-color:#cc90a7"/><stop offset=".95" style="stop-color:#ba75cc"/><stop offset="1" style="stop-color:#ae63e4"/></linearGradient><path d="M723.2,311.6c-4.6,0-8.6-3.1-9.7-7.5c-3.1-12.1-6.7-24-11-35.7c-2.1-5.1,0.4-10.9,5.6-13s10.9,0.4,13,5.6 c0.1,0.2,0.1,0.4,0.2,0.6c4.4,12,8.3,24.6,11.6,37.6c1.4,5.4-1.9,10.8-7.2,12.2c0,0,0,0,0,0C724.9,311.5,724,311.6,723.2,311.6z" class="st15"/><linearGradient id="SVGID_17_" x1="741.435" x2="639.955" y1="461.984" y2="461.984" gradientTransform="matrix(1 0 0 -1 0 686)" gradientUnits="userSpaceOnUse"><stop offset="0" style="stop-color:#ffdd40"/><stop offset=".18" style="stop-color:#fdda43"/><stop offset=".34" style="stop-color:#f8d24e"/><stop offset=".48" style="stop-color:#efc560"/><stop offset=".63" style="stop-color:#e3b279"/><stop offset=".76" style="stop-color:#d39a9a"/><stop offset=".9" style="stop-color:#bf7dc1"/><stop offset="1" style="stop-color:#ae63e4"/></linearGradient><path d="M698.9,244.3c-3.8,0-7.3-2.2-9-5.6c-3.3-6.9-6.9-13.6-10.7-20.1c-2.7-4.8-1-10.9,3.8-13.6 c4.7-2.7,10.7-1.1,13.5,3.5c4,6.9,7.9,14.1,11.4,21.4c2.4,5,0.3,11-4.6,13.4C701.9,244,700.4,244.3,698.9,244.3L698.9,244.3z" class="st16"/><linearGradient id="SVGID_18_" x1="830.075" x2="357.175" y1="546.768" y2="546.768" gradientTransform="matrix(1 0 0 -1 0 686)" gradientUnits="userSpaceOnUse"><stop offset="0" style="stop-color:#ffdd40"/><stop offset=".13" style="stop-color:#fcd945"/><stop offset=".29" style="stop-color:#f5ce55"/><stop offset=".47" style="stop-color:#e8bb6e"/><stop offset=".66" style="stop-color:#d7a092"/><stop offset=".86" style="stop-color:#c07fbf"/><stop offset="1" style="stop-color:#ae63e4"/></linearGradient><path d="M668.4,194.6c-3.1,0-6.1-1.4-8-3.9c-30-39.3-70.5-68.7-120.4-87.6c-5.1-2.1-7.6-7.9-5.5-13 c2-5,7.6-7.5,12.6-5.7c53.4,20.2,96.9,51.9,129.2,94.2c3.4,4.4,2.5,10.7-1.9,14C672.8,193.9,670.6,194.6,668.4,194.6z" class="st17"/><linearGradient id="SVGID_19_" x1="780.225" x2="-32.735" y1="611.1" y2="611.1" gradientTransform="matrix(1 0 0 -1 0 686)" gradientUnits="userSpaceOnUse"><stop offset="0" style="stop-color:#ffdd40"/><stop offset="1" style="stop-color:#ae63e4"/></linearGradient><path d="M509.5,92.8c-0.9,0-1.8-0.1-2.6-0.4C468.8,82.2,425.3,77,377.6,77c-33.7,0-68,0.1-97,0.1l0,0 c-5.5,0-10-4.5-10-10c0-5.5,4.5-10,10-10c29-0.1,63.3-0.1,97-0.1c49.5,0,94.7,5.4,134.6,16.1c5.3,1.4,8.5,6.9,7.1,12.2 C518,89.8,514.1,92.8,509.5,92.8z" class="st18"/><linearGradient id="SVGID_20_" x1="325.765" x2="109.105" y1="618.765" y2="618.765" gradientTransform="matrix(1 0 0 -1 0 686)" gradientUnits="userSpaceOnUse"><stop offset="0" style="stop-color:#ffdd40"/><stop offset=".14" style="stop-color:#edc265"/><stop offset=".34" style="stop-color:#d7a092"/><stop offset=".53" style="stop-color:#c586b6"/><stop offset=".71" style="stop-color:#b873cf"/><stop offset=".87" style="stop-color:#b167df"/><stop offset="1" style="stop-color:#ae63e4"/></linearGradient><path d="M199.9,77.3c-5.5,0-10-4.5-10-10s4.5-10,10-10l24.8-0.1l21.5,0l0,0c5.5,0,10,4.5,10,10s-4.5,10-10,10l0,0 l-21.5,0L199.9,77.3L199.9,77.3z" class="st19"/><linearGradient id="SVGID_21_" x1="329.845" x2="-148.335" y1="618.58" y2="618.58" gradientTransform="matrix(1 0 0 -1 0 686)" gradientUnits="userSpaceOnUse"><stop offset="0" style="stop-color:#ffdd40"/><stop offset=".1" style="stop-color:#eec462"/><stop offset=".23" style="stop-color:#dba689"/><stop offset=".37" style="stop-color:#cb8eaa"/><stop offset=".52" style="stop-color:#be7bc4"/><stop offset=".67" style="stop-color:#b56ed6"/><stop offset=".82" style="stop-color:#b066e1"/><stop offset="1" style="stop-color:#ae63e4"/></linearGradient><path d="M40.1,77.5c-5.5,0-10-4.5-10-10c0-5.5,4.5-10,10-10c39.8,0,80,0,126.4-0.1l0,0c5.5,0,10,4.5,10,10 c0,5.5-4.5,10-10,10C120.1,77.4,79.9,77.5,40.1,77.5z" class="st20"/><path d="M699.1,545.4c-9.7,0-17.5-7.8-17.5-17.5v-50.1c0-9.7,7.8-17.5,17.5-17.5c9.7,0,17.5,7.8,17.5,17.5v50.1 C716.6,537.5,708.7,545.4,699.1,545.4z" class="st21"/><path d="M656.5,642.6c-6.9,0-12.5-5.6-12.5-12.5V502.8c0-6.9,5.6-12.5,12.5-12.5s12.5,5.6,12.5,12.5v127.4 C669,637,663.4,642.6,656.5,642.6z" class="st21"/><path d="M656.5,698.7c-6.9,0-12.5-5.6-12.5-12.5v-15.9c0-6.9,5.6-12.5,12.5-12.5s12.5,5.6,12.5,12.5v15.9 C669,693.1,663.4,698.7,656.5,698.7z" class="st21"/><path d="M699.1,741.3c-9.7,0-17.5-7.8-17.5-17.5c0,0,0,0,0,0V576c0-9.7,7.8-17.5,17.5-17.5c9.7,0,17.5,7.8,17.5,17.5 v147.8C716.6,733.4,708.7,741.3,699.1,741.3z" class="st21"/><path d="M738.9,497.2c-5.5,0-10-4.5-10-10v-15.9c0-5.5,4.5-10,10-10s10,4.5,10,10v15.9 C748.9,492.7,744.5,497.2,738.9,497.2z" class="st21"/><path d="M738.9,608.3c-5.5,0-10-4.5-10-10v-76.2c0-5.5,4.5-10,10-10s10,4.5,10,10v76.2 C748.9,603.9,744.5,608.3,738.9,608.3z" class="st21"/></g></g></svg>