<svg xmlns="http://www.w3.org/2000/svg" width="554" height="107" fill="none" viewBox="0 0 554 107"><line x1="152.5" x2="346.5" y1="56.5" y2="56.5" stroke="url(#paint0_linear)" stroke-linecap="round" stroke-width="41"/><line x1="88.5" x2="198.5" y1="12.5" y2="12.5" stroke="url(#paint1_linear)" stroke-linecap="round" stroke-width="25"/><line x1="233.5" x2="249.5" y1="12.5" y2="12.5" stroke="url(#paint2_linear)" stroke-linecap="round" stroke-width="25"/><line x1="284.5" x2="406.5" y1="12.5" y2="12.5" stroke="url(#paint3_linear)" stroke-linecap="round" stroke-width="25"/><line x1="444.5" x2="446.5" y1="12.5" y2="12.5" stroke="url(#paint4_linear)" stroke-linecap="round" stroke-width="25"/><line x1="52.5" x2="54.5" y1="12.5" y2="12.5" stroke="url(#paint5_linear)" stroke-linecap="round" stroke-width="25"/><line x1="64" x2="240" y1="97" y2="97" stroke="url(#paint6_linear)" stroke-linecap="round" stroke-width="20"/><line x1="269" x2="422" y1="97" y2="97" stroke="url(#paint7_linear)" stroke-linecap="round" stroke-width="20"/><line x1="452" x2="464" y1="97" y2="97" stroke="url(#paint8_linear)" stroke-linecap="round" stroke-width="20"/><line x1="492" x2="504" y1="97" y2="97" stroke="url(#paint9_linear)" stroke-linecap="round" stroke-width="20"/><line x1="399.5" x2="438.5" y1="56.5" y2="56.5" stroke="url(#paint10_linear)" stroke-linecap="round" stroke-width="41"/><line x1="494.5" x2="533.5" y1="56.5" y2="56.5" stroke="url(#paint11_linear)" stroke-linecap="round" stroke-width="41"/><line x1="20.5" x2="98.5" y1="56.5" y2="56.5" stroke="url(#paint12_linear)" stroke-linecap="round" stroke-width="41"/><defs><linearGradient id="paint0_linear" x1="-2.5" x2="549.497" y1="66.496" y2="67.849" gradientUnits="userSpaceOnUse"><stop stop-color="#FFDD40"/><stop offset="1" stop-color="#47CF73"/></linearGradient><linearGradient id="paint1_linear" x1="6.5" x2="553.998" y1="14.494" y2="13.413" gradientUnits="userSpaceOnUse"><stop stop-color="#FFDD40"/><stop offset="1" stop-color="#47CF73"/></linearGradient><linearGradient id="paint2_linear" x1="-7" x2="544.365" y1="14.519" y2="5.871" gradientUnits="userSpaceOnUse"><stop stop-color="#FFDD40"/><stop offset="1" stop-color="#47CF73"/></linearGradient><linearGradient id="paint3_linear" x1=".5" x2="544.499" y1="14.495" y2="13.794" gradientUnits="userSpaceOnUse"><stop stop-color="#FFDD40"/><stop offset="1" stop-color="#47CF73"/></linearGradient><linearGradient id="paint4_linear" x1="-14.5" x2="552.156" y1="14.492" y2=".541" gradientUnits="userSpaceOnUse"><stop stop-color="#FFDD40"/><stop offset="1" stop-color="#47CF73"/></linearGradient><linearGradient id="paint5_linear" x1="5.001" x2="545.673" y1="14.538" y2="1.226" gradientUnits="userSpaceOnUse"><stop stop-color="#FFDD40"/><stop offset="1" stop-color="#47CF73"/></linearGradient><linearGradient id="paint6_linear" x1="8" x2="550.999" y1="96.494" y2="97.029" gradientUnits="userSpaceOnUse"><stop stop-color="#FFDD40"/><stop offset="1" stop-color="#47CF73"/></linearGradient><linearGradient id="paint7_linear" x1="6.5" x2="554" y1="96.5" y2="96.5" gradientUnits="userSpaceOnUse"><stop stop-color="#FFDD40"/><stop offset="1" stop-color="#47CF73"/></linearGradient><linearGradient id="paint8_linear" x1="6.5" x2="549.271" y1="96.513" y2="85.352" gradientUnits="userSpaceOnUse"><stop stop-color="#FFDD40"/><stop offset="1" stop-color="#47CF73"/></linearGradient><linearGradient id="paint9_linear" x1="3.5" x2="550.769" y1="97.99" y2="86.737" gradientUnits="userSpaceOnUse"><stop stop-color="#FFDD40"/><stop offset="1" stop-color="#47CF73"/></linearGradient><linearGradient id="paint10_linear" x1="-2.5" x2="556.975" y1="66.495" y2="62.749" gradientUnits="userSpaceOnUse"><stop stop-color="#FFDD40"/><stop offset="1" stop-color="#47CF73"/></linearGradient><linearGradient id="paint11_linear" x1="2" x2="553.975" y1="68.018" y2="64.322" gradientUnits="userSpaceOnUse"><stop stop-color="#FFDD40"/><stop offset="1" stop-color="#47CF73"/></linearGradient><linearGradient id="paint12_linear" x1="0" x2="550.995" y1="68.513" y2="66.851" gradientUnits="userSpaceOnUse"><stop stop-color="#FFDD40"/><stop offset="1" stop-color="#47CF73"/></linearGradient></defs></svg>